<svg width="32" height="32" viewBox="0 0 32 32" fill="none" xmlns="http://www.w3.org/2000/svg">
<rect width="32" height="32" rx="16" fill="#F2F5F8"/>
<path d="M15.3059 22.9443V16.5554H11.8337C12.042 19.4721 13.5698 21.7637 15.3059 22.9443Z" fill="#6E87AA"/>
<path d="M20.167 16.5554H16.6948V22.9443C18.4309 21.7637 19.9587 19.4721 20.167 16.5554Z" fill="#6E87AA"/>
<path d="M15.3059 15.1665V8.77761C13.3614 10.1665 12.042 12.5971 11.8337 15.1665H15.3059Z" fill="#6E87AA"/>
<path d="M21.5559 15.1665H24.3337C24.0559 11.4165 21.2087 8.36095 17.5975 7.6665C19.8198 9.33317 21.3475 12.1804 21.5559 15.1665Z" fill="#6E87AA"/>
<path d="M16.6948 8.77761V15.1665H20.167C19.9587 12.5971 18.6392 10.0971 16.6948 8.77761Z" fill="#6E87AA"/>
<path d="M21.5559 16.5554C21.3475 19.6109 19.8892 22.3887 17.5975 24.0554C21.2087 23.3609 23.9864 20.3054 24.3337 16.5554H21.5559Z" fill="#6E87AA"/>
<path d="M10.4448 16.5554H7.66699C7.94477 20.3054 10.7225 23.3609 14.4031 24.0554C12.1809 22.3887 10.6531 19.6109 10.4448 16.5554Z" fill="#6E87AA"/>
<path d="M10.4448 15.1665C10.6531 12.1804 12.1809 9.33317 14.4031 7.6665C10.792 8.36095 8.01421 11.4165 7.73644 15.1665H10.4448Z" fill="#6E87AA"/>
</svg>
