<svg width="32" height="32" viewBox="0 0 32 32" fill="none" xmlns="http://www.w3.org/2000/svg">
<rect width="32" height="32" rx="16" fill="#EDF2FD"/>
<path d="M17.6668 7.66663H10.0279C9.84376 7.66663 9.66713 7.73979 9.53689 7.87002C9.40666 8.00026 9.3335 8.17689 9.3335 8.36107V23.6388C9.3335 23.823 9.40666 23.9997 9.53689 24.1299C9.66713 24.2601 9.84376 24.3333 10.0279 24.3333H22.5279C22.7121 24.3333 22.8888 24.2601 23.019 24.1299C23.1492 23.9997 23.2224 23.823 23.2224 23.6388V13.2222H18.3613C18.1771 13.2222 18.0005 13.149 17.8702 13.0188C17.74 12.8885 17.6668 12.7119 17.6668 12.5277V7.66663Z" fill="#366AE2"/>
<path d="M22.8154 11.8333H19.0557V8.07357L22.8154 11.8333Z" fill="#366AE2"/>
</svg>
